<svg width="232" height="132" viewBox="0 0 232 132" fill="none" xmlns="http://www.w3.org/2000/svg">
<path d="M133.429 86.546C133.061 87.8938 132.574 89.2482 131.967 90.6092C131.371 91.9337 130.711 93.2019 129.989 94.4139L117.974 115.454C117.13 116.828 116.513 118.225 116.125 119.646C115.877 120.557 115.817 121.421 115.946 122.239C116.111 123.067 116.74 123.63 117.833 123.929L117.43 125.404C115.546 125.281 115.812 125.725 113.865 125.546C111.917 125.367 112.783 126.165 111.293 126.033C109.813 125.863 108.854 125.719 108.417 125.6C106.741 125.142 105.566 124.43 104.891 123.462C104.252 122.505 104.171 121.152 104.648 119.404C105.016 118.056 105.482 116.852 106.045 115.793L121.778 86.726C122.57 85.2591 123.209 83.6332 123.697 81.8482C124.254 79.8083 124.301 77.8444 123.837 75.9566C123.384 74.0323 117.737 71.4926 115.369 70.8461C113.73 70.3986 112.11 70.3087 110.51 70.5765C111.086 71.908 111.374 73.4349 111.374 75.157C111.41 76.8891 111.239 78.4473 110.861 79.8315C110.453 81.325 109.704 82.9211 108.614 84.6197C107.524 86.3184 106.215 87.7421 104.688 88.8909C103.161 90.0396 101.487 90.5807 99.6654 90.5139C97.9996 90.4505 96.4514 90.4695 94.7029 89.9921C94.7029 89.9921 95.3503 90.1182 93.5951 89.9521C91.5021 89.733 87.3804 90.1342 87.3804 90.1342C87.5968 90.1652 85.4438 90.0764 84.9533 90.0587C81.8206 89.2034 79.8025 87.4194 78.8992 84.7068C78.0057 81.9577 77.9469 79.1626 78.7226 76.3212C79.6177 73.0428 81.0292 70.6686 82.9571 69.1987C84.9214 67.7388 87.225 66.8999 89.8679 66.682C92.5108 66.4642 91.6096 66.2573 94.5504 66.6687C96.5142 66.9309 98.5675 67.0805 100.71 67.1176C102.863 67.1182 104.984 67.0906 107.074 67.0349C110.502 66.953 113.936 66.9904 117.377 67.147C120.818 67.3036 124.196 67.8345 127.511 68.7395C129.955 69.4069 130.607 70.8621 132.454 74.4195C134.347 77.9504 134.672 81.9926 133.429 86.546ZM99.8126 79.4372C100.091 78.4173 100.275 77.3128 100.365 76.1239C100.465 74.8986 100.296 73.7957 99.8592 72.8153C99.4223 71.8349 98.5482 71.1656 97.2368 70.8076C94.2498 69.9921 92.0253 72.2617 90.5633 77.6165C89.9864 79.7293 89.7988 81.6351 90.0003 83.3342C90.2482 85.0067 91.1554 86.0568 92.7217 86.4844C93.9238 86.8126 95.0102 86.5613 95.9808 85.7303C96.9514 84.8993 97.7614 83.8679 98.4108 82.636C99.1067 81.3778 99.5739 80.3115 99.8126 79.4372Z" fill="#CDAC6C"/>
<path d="M168.162 101.672C168.162 105.416 167.796 108.927 167.063 112.203C166.33 115.445 164.998 118.337 163.066 120.878C161.167 123.418 160.818 124.806 157.187 126.444C155.554 127.146 153.955 127.664 152.39 127.998C151.923 128.065 151.457 128.149 150.991 128.249C150.524 128.316 150.058 128.433 149.591 128.6C148.359 129.035 146.727 129.787 144.695 130.857C142.662 131.893 142.671 131.709 140.206 131.709C137.241 131.709 135.043 131.007 133.61 129.603C132.178 128.199 131.245 126.377 130.812 124.137C130.379 121.897 130.162 119.524 130.162 117.017C130.162 112.102 130.595 107.706 131.462 103.829C132.361 99.9173 134.043 96.4907 136.508 93.5489C139.007 90.5737 142.313 87.7154 147.043 85.6762L147.593 70.8836C147.593 70.7833 147.526 70.3153 147.393 69.4795C147.26 68.6438 146.91 68.2928 146.343 68.4265V66.872H152.54C153.039 66.7717 153.556 66.7216 154.089 66.7216C155.887 66.7216 156.77 67.6409 156.737 69.4795L156.187 85.4757C159.618 85.7765 161.617 86.5287 163.415 87.9327C165.214 89.3368 166.447 91.2089 167.113 93.5489C167.813 95.8556 168.162 98.5634 168.162 101.672ZM157.287 97.9115C157.287 96.8083 157.187 95.4711 156.987 93.8999C156.82 92.3287 156.387 90.9414 155.688 89.7379C154.988 88.5345 153.855 87.9327 152.29 87.9327C150.957 87.9327 149.791 88.267 148.792 88.9356C147.826 89.6042 147.01 90.5068 146.343 91.6434C145.711 92.7132 145.111 94.4348 144.545 96.8083C143.978 99.1484 143.462 101.723 142.996 104.531C142.563 107.305 142.213 109.946 141.946 112.453C141.68 114.927 141.547 116.849 141.547 118.22C141.547 119.323 141.613 120.443 141.746 121.58C141.913 122.716 142.296 123.686 142.896 124.488C143.529 125.257 144.545 125.641 145.944 125.641C147.609 125.641 149.008 125.224 150.141 124.388C151.274 123.519 152.323 121.814 153.289 119.273C153.989 117.434 154.638 115.245 155.238 112.704C155.871 110.13 156.37 107.539 156.737 104.932C157.103 102.291 157.287 99.9507 157.287 97.9115Z" fill="#CDAC6C"/>
<path d="M223.485 62.3779C223.652 63.7271 223.783 65.0996 223.879 66.4955C223.97 67.8539 224.024 69.2169 224.041 70.5846L224.698 114.79C224.688 115.019 224.699 115.265 224.732 115.527C224.759 115.752 224.787 115.977 224.815 116.202C225.125 118.713 225.478 120.343 225.875 121.093C226.309 121.839 226.901 122.317 227.65 122.529L227.871 124.328L222.531 124.987C221.866 125.145 221.219 125.301 220.591 125.454C219.963 125.608 219.312 125.726 218.638 125.809C216.801 126.036 215.551 125.619 214.888 124.56C214.262 123.495 213.852 122.176 213.658 120.602C213.473 119.103 213.382 117.745 213.384 116.527L212.931 80.4578L201.677 84.0712C201.687 86.9236 201.695 90.2326 201.703 93.9982C201.706 97.7264 201.705 101.417 201.699 105.07C201.726 108.681 201.748 111.798 201.767 114.421C201.824 117.039 201.889 118.648 201.963 119.248C202.083 120.222 202.262 121.209 202.499 122.207C202.736 123.205 203.412 123.901 204.526 124.296L204.748 126.095L198.832 126.463C198.204 126.617 197.576 126.77 196.948 126.924C196.32 127.077 195.669 127.196 194.995 127.279C193.121 127.51 191.871 127.093 191.245 126.029C190.619 124.965 190.209 123.646 190.015 122.072C189.83 120.573 189.744 119.1 189.756 117.652L189.444 81.3376C189.451 79.5485 189.351 77.8107 189.143 76.1242C189.032 75.2248 188.711 74.1611 188.179 72.9331C187.647 71.7051 186.946 70.6501 186.077 69.7682C185.244 68.8816 184.248 68.5099 183.086 68.6532C182.636 68.7086 182.193 68.8203 181.757 68.9882C181.359 69.1514 179.088 70.1163 178.652 70.2842C178.934 72.5702 178.502 74.7731 177.356 76.8929C176.242 78.9706 174.708 80.7197 172.752 82.1403C170.792 83.5233 168.707 84.3512 166.496 84.6239C165.896 84.6978 165.247 84.6827 164.55 84.5785C163.852 84.4743 163.267 84.204 162.795 83.7676C163.265 82.6443 163.602 81.5185 163.805 80.3901C164.004 79.2242 164.029 78.0416 163.881 76.8424C163.77 75.9429 163.605 75.0692 163.387 74.2211C163.205 73.3684 163.003 72.4992 162.78 71.6136C165.399 70.9482 168.028 70.0534 170.667 68.929C173.301 67.7672 175.923 66.6639 178.534 65.6191C181.144 64.5743 182.087 64.9716 184.673 64.6528C188.121 64.2276 191.008 64.6516 193.333 65.9248C195.659 67.1979 197.468 69.0673 198.762 71.533C200.05 73.9613 200.889 76.7494 201.277 79.8975L212.868 76.2425L212.564 64.9802C212.542 63.8796 212.15 63.0148 211.388 62.3859C210.621 61.7196 209.811 61.1726 208.96 60.7449L208.745 59.0023L214.171 57.1917C215.409 56.7348 216.552 56.4416 217.601 56.3122C219.475 56.0812 220.874 56.6315 221.8 57.9632C222.725 59.2949 223.287 60.7665 223.485 62.3779Z" fill="#CDAC6C"/>
<path d="M85 89.5C83.6861 89.6642 78.5229 88.2615 76.6055 87.1777C74.8685 86.196 74 84.2897 74 81.6465C74 81.0046 74.2266 80.1738 74.6797 79.1543C75.1706 78.097 75.5671 77.2663 75.8691 76.6621C79.0788 70.4694 82.194 64.5033 85.2148 58.7637C88.2357 53.0241 91.2754 47.1901 94.334 41.2617L83.9688 42.5645C83.3646 42.64 82.7604 42.7155 82.1562 42.791C81.5521 42.8665 80.9479 42.9043 80.3438 42.9043C77.625 42.9043 76.3223 41.6393 76.4355 39.1094L77.1719 20.8145C77.1719 20.4746 77.1152 20.097 77.002 19.6816C76.9264 19.2663 76.6621 19.0397 76.209 19.002V17.6426L87.2539 16.1133C87.9336 16.0378 88.4622 16 88.8398 16C92.2005 16 93.8809 17.7181 93.8809 21.1543C93.8809 21.834 93.8053 23.1367 93.6543 25.0625C93.5033 26.9883 93.3333 29.1029 93.1445 31.4062C92.9935 33.6719 92.8424 35.7298 92.6914 37.5801C94.2396 37.3913 95.7878 37.2025 97.3359 37.0137C98.9219 36.7871 100.489 36.5794 102.037 36.3906C102.943 36.2773 104.001 36.1641 105.209 36.0508C106.455 35.8997 107.418 35.8242 108.098 35.8242C109.759 35.8242 110.892 35.9941 111.496 36.334C112.1 36.6361 112.402 37.429 112.402 38.7129C112.402 39.2793 111.987 40.4499 111.156 42.2246C110.326 43.9993 109.268 46.0951 107.984 48.5117C106.738 50.8906 105.436 53.3073 104.076 55.7617C102.755 58.1784 99.8333 63.3828 98.7383 65.3086C97.681 67.2344 95.4154 68.207 95 69C95 69.7598 84.7168 89.5 85 89.5Z" fill="#CDAC6C"/>
<path d="M69.668 42.2539C69.668 46.2188 68.403 49.4095 65.873 51.8262C63.3809 54.2428 59.9447 56.0742 55.5645 57.3203C51.222 58.5286 46.2565 59.3783 40.668 59.8691L37.8926 75.6719C37.5905 77.2578 37.4395 78.7871 37.4395 80.2598C37.4395 82.0345 37.6471 83.2428 38.0625 83.8848C38.5156 84.5267 39.2708 85.0365 40.3281 85.4141V87.1133L30.1328 88.5293C29.5286 88.6048 28.8678 88.6803 28.1504 88.7559C27.4707 88.8314 26.8099 88.8691 26.168 88.8691C24.0534 88.8691 22.6751 88.3971 22.0332 87.4531C21.3913 86.5091 21.0703 85.0176 21.0703 82.9785C21.0703 82.2988 21.127 81.4681 21.2402 80.4863C21.3913 79.4668 21.5423 78.5417 21.6934 77.7109L24.6953 61.2852C22.7318 61.5117 20.5983 61.7383 18.2949 61.9648C15.9915 62.1914 14.1035 62.3047 12.6309 62.3047C10.403 62.3047 8.32617 62.0404 6.40039 61.5117C4.47461 60.9453 2.92643 59.9447 1.75586 58.5098C0.585286 57.0749 0 55.0547 0 52.4492C0 48.4844 0.92513 45.2747 2.77539 42.8203C4.66341 40.3281 7.09896 38.4212 10.082 37.0996C13.1029 35.7402 16.3314 34.7773 19.7676 34.2109C23.2038 33.6068 26.4701 33.2292 29.5664 33.0781C29.6797 32.4362 29.8496 31.3978 30.0762 29.9629C30.3405 28.4902 30.5671 27.0742 30.7559 25.7148C30.9447 24.3555 31.0391 23.487 31.0391 23.1094C31.0391 20.8815 30.4727 19.2767 29.3398 18.2949C28.207 17.2754 26.6966 16.3691 24.8086 15.5762C23.7135 16.1803 22.543 16.5957 21.2969 16.8223C20.0885 17.0488 18.8613 17.1621 17.6152 17.1621C14.9342 17.1621 12.3099 16.7845 9.74219 16.0293C10.8372 15.3874 11.5547 14.3678 11.8945 12.9707C12.2344 11.5358 12.4043 10.2331 12.4043 9.0625C12.4043 7.96745 12.2344 6.70247 11.8945 5.26758C11.5547 3.79492 10.9128 2.69987 9.96875 1.98242C11.3281 1.26497 12.7441 0.755208 14.2168 0.453125C15.7272 0.151042 17.2376 0 18.748 0C20.4095 0 22.1276 0.188802 23.9023 0.566406C25.6771 0.94401 27.1686 1.66146 28.377 2.71875C29.623 3.77604 30.2461 5.3431 30.2461 7.41992C30.2461 9.23242 29.6608 10.9316 28.4902 12.5176L43.3301 14.0469C46.1999 14.349 47.6348 15.9727 47.6348 18.918C47.6348 19.7487 47.5215 20.9382 47.2949 22.4863C47.0684 24.0345 46.804 25.6393 46.502 27.3008C46.1999 28.9622 45.9167 30.416 45.6523 31.6621C47.5404 31.4355 49.4284 31.2467 51.3164 31.0957C53.2422 30.9447 55.1491 30.8691 57.0371 30.8691C60.6999 30.8691 63.7207 31.7943 66.0996 33.6445C68.4785 35.457 69.668 38.3268 69.668 42.2539ZM28.7168 37.6094C24.752 37.6094 21.6934 38.4967 19.541 40.2715C17.3887 42.0085 16.3125 44.9538 16.3125 49.1074C16.3125 51.373 16.7656 53.2799 17.6719 54.8281C18.5781 56.3385 20.2962 57.0938 22.8262 57.0938C23.7702 57.0938 24.6198 57.0182 25.375 56.8672L28.7168 37.6094ZM52.8457 43.9531C52.8457 42.1406 52.4303 40.3848 51.5996 38.6855C50.7689 36.9486 49.2585 36.0801 47.0684 36.0801H44.8594L41.5176 55.5645C41.9707 55.64 42.3294 55.6777 42.5938 55.6777C44.5951 55.6777 46.3698 55.0924 47.918 53.9219C49.4661 52.7513 50.6745 51.2598 51.543 49.4473C52.4115 47.6348 52.8457 45.8034 52.8457 43.9531Z" fill="#CDAC6C"/>
</svg>
