<svg width="41" height="38" viewBox="0 0 41 38" fill="none" xmlns="http://www.w3.org/2000/svg">
<path opacity="0.195378" fill-rule="evenodd" clip-rule="evenodd" d="M15.1172 2C13.3945 2.0001 11.6887 2.33951 10.0971 2.99886C8.50559 3.65822 7.05952 4.62462 5.84147 5.84285C4.62342 7.06108 3.65726 8.50728 2.99813 10.0989C2.33901 11.6905 1.99985 13.3964 2 15.1191C2.0002 18.5979 3.38224 21.9342 5.84215 24.3941C8.30206 26.854 11.6384 28.2361 15.1172 28.2363C16.8399 28.2364 18.5458 27.8973 20.1374 27.2382C21.729 26.579 23.1752 25.6129 24.3935 24.3948C25.6117 23.1768 26.5781 21.7307 27.2374 20.1391C27.8968 18.5476 28.2362 16.8418 28.2363 15.1191C28.2365 13.3962 27.8972 11.6902 27.238 10.0985C26.5788 8.5067 25.6124 7.06041 24.3942 5.84216C23.1759 4.6239 21.7296 3.65753 20.1378 2.99829C18.5461 2.33904 16.8401 1.99984 15.1172 2ZM27.0195 24.039L25.2324 25.9805L36.6094 36.0039L38.3945 34.0644L27.0195 24.039Z" fill="#F4E1C1" stroke="black" stroke-width="4" stroke-linecap="round" stroke-linejoin="round"/>
</svg>
