<svg width="304" height="295" viewBox="0 0 304 295" fill="none" xmlns="http://www.w3.org/2000/svg">
<path opacity="0.970588" d="M76.2379 175.491C80.1279 171.619 88.4942 165.811 98.897 173.744C152.498 214.62 222.632 151.793 184.66 93.0722C182.138 89.1722 180.189 81.1165 186.223 75.2561C206.071 55.9788 243.176 20.6396 243.176 20.6396C244.622 19.2347 244.753 28.022 243.569 29.2033C243.569 29.2033 205.771 59.8365 187.121 81.425C183.733 85.3471 184.618 87.2074 186.822 90.7987C225.962 154.586 156.789 220.681 95.8991 175.1C91.3605 171.703 83.0737 174.258 78.2024 179.046L25.8414 230.507C23.1924 233.11 15.3811 232.261 17.3844 230.313C26.0752 221.861 76.813 175.424 76.2379 175.491Z" fill="#D35F5F" fill-opacity="0.972549"/>
<path opacity="0.97" d="M174.594 170.188C198.373 148.03 199.391 110.475 176.87 86.3057C154.348 62.1364 116.814 60.5054 93.0359 82.6628C69.2575 104.82 68.2387 142.376 90.7605 166.545C113.282 190.714 150.816 192.345 174.594 170.188Z" fill="black"/>
<path opacity="0.970588" d="M74.0981 172.537C78.267 168.968 82.1126 167.829 93.9346 171.545C119.064 193.901 155.648 188.955 174.91 170.526C193.688 152.561 200.283 119.114 180.835 90.6009C179.999 86.0151 178.413 77.7489 184.259 71.7013L197.316 58.1935L241.884 12.0875C242.775 11.1659 245.437 18.6522 243.478 20.5485L184.916 77.2478C180.94 81.0969 184.11 84.2218 182.997 88.3274C223.781 150.643 153.783 220.415 93.9346 171.545C88.2557 172.22 81.0992 170.693 76.238 175.491C57.5602 193.926 33.047 215.172 17.3844 230.313C15.8327 231.813 7.56902 229.723 9.00674 228.497C28.8654 211.56 53.0018 190.602 74.0981 172.537Z" fill="#501616"/>
<path opacity="0.970588" d="M25.4533 230.686C25.4533 230.686 64.2944 186.203 81.728 176.064C97.3061 167.004 93.2809 171.199 102.104 177.472C150.146 211.631 220.922 153.507 185.232 98.5183C179.865 90.2498 180.601 89.4957 187.121 81.4251C204.389 60.0511 227.242 41.3794 243.577 29.0043C245.925 27.2258 243.028 37.1485 241.931 38.0702C232.837 45.7172 204.569 68.7033 189.345 83.8294C185.42 87.7295 185.168 92.6664 187.393 96.2447C223.708 154.642 155.659 218.111 98.6761 180.258C93.9536 177.121 87.2898 175.493 82.1456 179.986C65.038 194.928 52.1538 212.312 33.7244 229.335C32.7591 229.475 28.2717 233.243 25.4533 230.686Z" fill="#E9AFAF" fill-opacity="0.972549"/>
<path d="M171.72 167.103C187.557 152.346 185.96 124.894 168.155 105.786C150.35 86.6777 123.078 83.1504 107.241 97.9073C91.4046 112.664 93.0007 140.117 110.806 159.225C128.611 178.333 155.884 181.86 171.72 167.103Z" fill="url(#paint0_radial_27_94)" fill-opacity="0.7"/>
<path d="M132.795 129.994C133.733 131.852 133.892 133.982 133.44 136.048C132.404 140.787 124.764 144.529 119.954 145.09C118.471 145.262 116.559 145.561 114.045 146.07C111.373 144.123 112.75 133.813 118.679 127.616C122.869 123.712 127.768 124.55 130.917 127.532C131.54 128.122 132.408 129.228 132.795 129.994Z" fill="white" fill-opacity="0.836283" stroke="black" stroke-width="2.51338" stroke-linecap="round"/>
<path d="M131.321 127.735C134.268 130.897 134.567 136.603 131.405 139.55C128.242 142.498 123.807 140.933 120.86 137.77C117.913 134.607 116.6 130.127 119.763 127.18C122.926 124.232 128.374 124.572 131.321 127.735Z" fill="black" stroke="black" stroke-width="2.51338" stroke-linecap="round"/>
<path d="M155.099 109.211C156.037 111.068 156.196 113.199 155.744 115.265C154.708 120.003 148.111 123.479 143.3 124.039C142.156 123.575 141.382 123.779 139.584 122.847C136.911 120.901 135.054 113.03 140.983 106.833C145.173 102.928 150.072 103.767 153.221 106.749C153.844 107.339 154.712 108.445 155.099 109.211Z" fill="white" fill-opacity="0.836283" stroke="black" stroke-width="2.51338" stroke-linecap="round"/>
<path d="M153.625 106.951C156.572 110.114 156.871 115.82 153.708 118.767C150.546 121.714 146.111 120.15 143.164 116.987C140.217 113.824 138.904 109.343 142.067 106.396C145.23 103.449 150.678 103.788 153.625 106.951Z" fill="black" stroke="black" stroke-width="2.51338" stroke-linecap="round"/>
<path d="M136.76 103.422C135.464 104.348 134.276 105.481 133.343 106.79C132.7 107.692 132.039 109.098 131.517 110.298C130.995 111.497 130.623 112.486 130.623 112.486C130.539 112.709 130.652 112.958 130.874 113.042C131.098 113.127 131.349 113.013 131.432 112.789C131.432 112.789 131.796 111.819 132.308 110.641C132.821 109.463 133.491 108.069 134.047 107.288C134.915 106.07 136.034 105.002 137.263 104.125C138.052 103.562 139.267 102.936 140.57 102.34C143.492 101.004 146.859 99.8165 146.859 99.8165C147.078 99.7258 147.184 99.4744 147.094 99.2542C147.004 99.0346 146.753 98.9289 146.533 99.0173C146.533 99.0173 139.539 101.438 136.76 103.422Z" fill="black"/>
<path d="M130.874 113.042C131.098 113.127 131.349 113.013 131.432 112.789C131.432 112.789 131.796 111.819 132.308 110.641C132.821 109.463 133.491 108.069 134.047 107.288C134.915 106.07 136.034 105.002 137.263 104.125C138.052 103.562 139.267 102.936 140.57 102.34C143.492 101.004 146.859 99.8165 146.859 99.8165C147.078 99.7258 147.184 99.4744 147.094 99.2542C147.004 99.0346 146.753 98.9289 146.533 99.0173C146.533 99.0173 139.539 101.438 136.76 103.422C135.464 104.348 134.276 105.481 133.343 106.79C132.7 107.692 132.039 109.098 131.517 110.298C130.995 111.497 130.623 112.486 130.623 112.486C130.539 112.709 130.652 112.958 130.874 113.042Z" fill="black" stroke="black" stroke-width="1.51181" stroke-linecap="round"/>
<path d="M112.353 125.989C113.368 124.761 114.582 123.656 115.953 122.818C116.899 122.24 118.347 121.68 119.581 121.243C120.815 120.807 121.827 120.506 121.827 120.506C121.936 120.474 122.055 120.486 122.155 120.54C122.256 120.594 122.331 120.686 122.364 120.796C122.38 120.851 122.386 120.908 122.38 120.964C122.374 121.021 122.357 121.076 122.33 121.126C122.303 121.176 122.266 121.22 122.222 121.256C122.178 121.292 122.127 121.319 122.072 121.335C122.072 121.335 121.08 121.629 119.868 122.057C118.657 122.486 117.219 123.055 116.401 123.555C115.125 124.335 113.981 125.377 113.019 126.54C111.017 128.963 108.076 134.928 108.076 134.928C108.025 135.03 107.936 135.108 107.827 135.145C107.719 135.181 107.601 135.174 107.498 135.123C107.396 135.073 107.318 134.984 107.281 134.876C107.244 134.768 107.252 134.65 107.302 134.547C107.302 134.547 110.178 128.621 112.353 125.989Z" fill="black" stroke="black" stroke-width="1.51181" stroke-linecap="round"/>
<path d="M131.198 113.13L139.697 123.32L149.932 133.056L158.096 140.569L154.688 145.738L151.13 146.645" stroke="black" stroke-width="2.26772" stroke-linecap="round" stroke-linejoin="round"/>
<path d="M153.278 154.382C153.278 154.382 159.607 151.207 164.533 143.894L153.278 154.382Z" fill="black"/>
<path d="M153.278 154.382C153.278 154.382 159.607 151.207 164.533 143.894" stroke="black" stroke-width="1.51181" stroke-linecap="round" stroke-linejoin="round"/>
<path d="M152.188 153.718L153.653 155.29L152.188 153.718Z" fill="black"/>
<path d="M152.188 153.718L153.653 155.29" stroke="black" stroke-width="1.51181" stroke-linecap="round" stroke-linejoin="round"/>
<path d="M163.94 142.768L165.405 144.34L163.94 142.768Z" fill="black"/>
<path d="M163.94 142.768L165.405 144.34" stroke="black" stroke-width="1.51181" stroke-linecap="round" stroke-linejoin="round"/>
<path fill-rule="evenodd" clip-rule="evenodd" d="M82.8278 168.105C85.3188 170.741 87.997 173.196 90.831 175.436C89.5024 178.061 87.5468 180.395 85.0096 181.91C82.9159 183.161 79.9303 183.793 77.7352 181.953C75.4807 180.063 75.9639 176.808 77.0659 174.561C78.3669 171.908 80.3791 169.688 82.8278 168.105ZM91.2386 175.808C91.9059 176.327 92.5814 176.835 93.2651 177.33C95.5033 178.951 97.8314 180.443 100.23 181.795C99.3604 184.63 97.831 187.277 95.5997 189.203C93.7586 190.793 90.9446 191.914 88.4984 190.437C87.2966 189.711 86.6409 188.534 86.3817 187.251C86.107 185.891 86.2756 184.426 86.6454 183.176C87.4897 180.32 89.1007 177.783 91.2386 175.808ZM100.689 182.099C102.113 182.887 103.561 183.627 105.029 184.315C106.806 185.147 108.615 185.906 110.447 186.587C110.06 189.555 108.997 192.444 107.131 194.73C105.592 196.617 103.027 198.197 100.397 197.127C100.176 197.037 99.9672 196.931 99.772 196.81C97.6306 195.491 97.1237 192.522 97.4038 190.196C97.7631 187.212 98.9228 184.418 100.689 182.099ZM110.945 186.815C113.128 187.608 115.343 188.292 117.58 188.865C118.785 189.174 119.997 189.45 121.213 189.693C121.315 192.714 120.743 195.766 119.291 198.349C118.375 199.978 116.873 201.507 114.97 201.875C114.375 201.989 113.747 201.988 113.102 201.838C110.286 201.186 109.168 197.991 109.054 195.423C108.92 192.39 109.597 189.416 110.945 186.815ZM121.736 189.839C124.653 190.399 127.595 190.772 130.535 190.954C131.103 190.989 131.671 191.017 132.238 191.038C132.824 194.032 132.756 197.167 131.753 199.978C131.457 200.806 131.035 201.633 130.479 202.351C129.476 203.649 128.029 204.579 126.27 204.46C123.415 204.268 121.808 201.267 121.281 198.726C120.66 195.725 120.84 192.651 121.736 189.839ZM132.773 191.098C136.281 191.2 139.781 191.029 143.227 190.589C143.544 191.458 143.805 192.349 144.001 193.25C144.083 193.627 144.154 194.006 144.212 194.386C144.48 196.121 144.495 197.879 144.192 199.577C143.757 202.023 142.301 204.671 139.556 204.935C136.736 205.207 134.682 202.477 133.759 200.029C132.668 197.14 132.35 194.046 132.773 191.098ZM143.759 190.562C147.201 190.093 150.591 189.354 153.883 188.352C155.381 191.059 156.318 194.112 156.283 197.152C156.253 199.66 155.259 202.538 152.618 203.249C149.905 203.979 147.457 201.592 146.161 199.303C144.63 196.601 143.82 193.569 143.759 190.562ZM154.398 188.238C154.967 188.06 155.532 187.874 156.095 187.68C158.781 186.755 161.398 185.65 163.922 184.377C165.825 186.829 167.239 189.717 167.7 192.752C168.08 195.256 167.577 198.287 165.112 199.43C163.536 200.16 161.814 199.655 160.369 198.659C159.522 198.074 158.769 197.325 158.162 196.557C156.228 194.114 154.946 191.225 154.398 188.238ZM164.406 184.18C165.597 183.567 166.767 182.916 167.913 182.229C169.693 181.162 171.418 180.005 173.081 178.766C175.339 180.897 177.189 183.543 178.132 186.492C178.911 188.925 178.915 192.027 176.694 193.571C176.283 193.857 175.839 194.042 175.38 194.142C173.314 194.589 171.028 193.323 169.437 191.85C167.15 189.734 165.428 187.065 164.406 184.18ZM173.523 178.489C175.288 177.151 176.982 175.72 178.596 174.204C179.468 173.384 180.317 172.54 181.141 171.673C183.689 173.432 185.919 175.772 187.313 178.559C188.194 180.32 188.692 182.509 188.022 184.32C187.815 184.881 187.496 185.401 187.046 185.845C185.075 187.792 181.866 186.779 179.683 185.309C177.106 183.574 174.989 181.198 173.523 178.489ZM181.528 171.325C183.64 169.064 185.585 166.648 187.337 164.1C187.518 163.838 187.696 163.574 187.872 163.31C190.645 164.648 193.203 166.615 195.015 169.166C195.239 169.481 195.451 169.815 195.645 170.163C196.751 172.147 197.238 174.633 195.922 176.475C194.306 178.737 191.007 178.243 188.639 177.13C185.843 175.817 183.394 173.789 181.528 171.325ZM188.194 162.901C190.062 160.041 191.699 157.021 193.082 153.879C196.009 154.757 198.828 156.297 201.013 158.541C202.816 160.393 204.268 163.221 203.089 165.675C201.878 168.197 198.574 168.247 196.08 167.525C193.136 166.673 190.416 165.051 188.194 162.901ZM193.33 153.419C193.431 153.183 193.531 152.947 193.63 152.71C194.852 149.773 195.857 146.732 196.636 143.622C199.637 144.017 202.641 145.091 205.14 146.969C207.202 148.518 209.081 151.097 208.33 153.736C207.603 156.288 204.69 156.97 202.222 156.774C202.075 156.763 201.929 156.748 201.786 156.731C198.771 156.365 195.851 155.196 193.33 153.419ZM196.803 143.123C197.025 142.205 197.227 141.282 197.41 140.355C197.898 137.872 198.245 135.352 198.448 132.813C201.445 132.718 204.552 133.299 207.297 134.764C209.562 135.972 211.814 138.236 211.508 140.986C211.382 142.112 210.802 142.988 209.99 143.626C208.794 144.563 207.123 144.973 205.601 145.038C202.597 145.168 199.554 144.481 196.803 143.123ZM198.531 132.288C198.648 130.679 198.707 129.063 198.709 127.444C198.711 125.546 198.634 123.643 198.479 121.742C201.392 121.161 204.521 121.236 207.439 122.25C209.847 123.087 212.412 124.977 212.555 127.768C212.565 127.969 212.56 128.163 212.542 128.353C212.302 130.825 209.738 132.278 207.436 132.766C204.522 133.383 201.438 133.194 198.531 132.288ZM198.476 121.205C198.271 118.919 197.953 116.637 197.523 114.372C197.291 113.146 197.025 111.923 196.726 110.707C199.478 109.653 202.548 109.218 205.563 109.754C207.469 110.093 209.537 111.015 210.692 112.685C211.048 113.199 211.313 113.78 211.45 114.424C212.056 117.258 209.58 119.314 207.253 120.236C204.505 121.324 201.462 121.637 198.476 121.205ZM196.636 110.172C195.895 107.246 194.965 104.359 193.854 101.537C193.652 101.023 193.444 100.512 193.23 100.003C195.747 98.5026 198.675 97.565 201.706 97.6055C202.547 97.6167 203.436 97.7334 204.291 97.9888C205.986 98.495 207.546 99.5621 208.215 101.298C209.266 104.025 207.18 106.479 205.055 107.777C202.546 109.309 199.623 110.116 196.636 110.172ZM193.055 99.4852C191.638 96.1853 189.97 92.9804 188.073 89.9136C190.287 88.0053 192.993 86.59 195.961 86.132C198.41 85.7541 201.488 86.2637 202.92 88.7416C204.391 91.2872 202.753 94.0757 200.889 95.7176C198.688 97.6565 195.964 98.9391 193.055 99.4852ZM187.818 89.4269C187.792 89.3842 187.765 89.3416 187.739 89.299C185.839 86.2906 183.711 83.4125 181.39 80.6973C183.244 78.4337 185.66 76.5834 188.485 75.6424C190.816 74.8659 193.904 74.8686 195.704 77.1002C197.554 79.3937 196.409 82.4414 194.856 84.3842C194.432 84.914 193.975 85.4151 193.486 85.8849C191.866 87.4436 189.929 88.6428 187.818 89.4269Z" fill="#6C5353" stroke="#6C5353" stroke-width="2.57956" stroke-linecap="round" stroke-linejoin="round"/>
<path fill-rule="evenodd" clip-rule="evenodd" d="M87.5795 164.088C90.0205 166.428 92.6179 168.598 95.3361 170.563C94.4255 172.952 92.9363 175.092 90.8458 176.5C89.1211 177.662 86.5408 178.277 84.4106 176.639C82.2223 174.956 82.3346 172.008 83.0946 169.97C83.9925 167.562 85.5647 165.542 87.5795 164.088C87.5796 164.088 87.5793 164.088 87.5795 164.088ZM95.732 170.89C96.3941 171.362 97.0632 171.821 97.7388 172.268C99.851 173.666 102.031 174.944 104.261 176.095C103.794 178.672 102.728 181.096 100.962 182.884C99.506 184.358 97.1368 185.43 94.8147 184.14C93.7172 183.531 93.0233 182.533 92.6496 181.429C92.2233 180.171 92.2144 178.791 92.4207 177.616C92.8757 175.024 94.0447 172.71 95.732 170.89C95.7321 170.89 95.7319 170.891 95.732 170.89ZM104.697 176.359C106.098 177.069 107.518 177.729 108.952 178.337C110.541 179.011 112.15 179.62 113.772 180.166C113.755 182.854 113.135 185.489 111.74 187.6C110.589 189.341 108.497 190.832 106.056 189.928C105.935 189.883 105.818 189.833 105.703 189.779C103.458 188.701 102.664 185.92 102.662 183.74C102.659 181.038 103.387 178.492 104.697 176.359C104.697 176.358 104.697 176.359 104.697 176.359ZM114.235 180.358C116.383 181.063 118.552 181.654 120.729 182.13C121.687 182.34 122.647 182.527 123.607 182.692C124.029 185.416 123.859 188.185 122.862 190.554C122.303 191.883 121.327 193.152 119.959 193.686C119.31 193.939 118.579 194.023 117.789 193.863C115.233 193.347 113.895 190.491 113.513 188.176C113.061 185.442 113.333 182.741 114.235 180.358ZM124.085 182.81C126.971 183.283 129.862 183.554 132.727 183.627C132.986 183.633 133.245 183.638 133.504 183.641C134.341 186.331 134.612 189.161 134.027 191.72C133.973 191.957 133.908 192.194 133.831 192.429C133.222 194.288 131.859 195.985 129.679 195.895C127.145 195.79 125.401 193.123 124.658 190.843C123.782 188.151 123.603 185.371 124.085 182.81ZM133.984 183.684C137.102 183.699 140.189 183.476 143.208 183.024C144.431 185.614 145.127 188.437 144.959 191.119C144.82 193.333 143.807 195.744 141.421 196.033C138.971 196.33 136.875 193.912 135.801 191.723C134.534 189.139 133.922 186.354 133.984 183.684ZM143.679 182.991C143.985 182.943 144.29 182.892 144.594 182.839C147.29 182.369 149.928 181.713 152.488 180.879C154.06 183.312 155.159 186.061 155.404 188.802C155.606 191.064 154.997 193.661 152.744 194.326C150.808 194.897 148.786 193.489 147.389 191.808C147.127 191.492 146.886 191.167 146.669 190.842C145.05 188.427 144.029 185.703 143.679 182.991ZM152.937 180.773C153.953 180.433 154.957 180.065 155.946 179.669C157.721 178.959 159.451 178.16 161.13 177.275C163.013 179.497 164.484 182.112 165.132 184.848C165.666 187.107 165.468 189.828 163.397 190.847C162.889 191.096 162.343 191.184 161.787 191.145C160.038 191.023 158.256 189.675 157.011 188.257C155.084 186.063 153.685 183.464 152.937 180.773ZM161.548 177.099C163.228 176.196 164.856 175.208 166.423 174.139C167.283 173.553 168.125 172.942 168.948 172.307C171.096 174.271 172.902 176.696 173.933 179.368C174.589 181.069 174.867 183.087 174.114 184.564C173.888 185.005 173.571 185.394 173.149 185.701C171.252 187.082 168.455 185.685 166.601 184.051C164.413 182.124 162.673 179.708 161.548 177.099ZM169.327 172.065C171.591 170.291 173.711 168.337 175.67 166.227C175.711 166.184 175.751 166.14 175.791 166.097C177.784 167.506 179.588 169.285 180.935 171.341C181.183 171.721 181.416 172.109 181.631 172.506C182.773 174.613 183.384 177.396 181.799 179.03C180.172 180.707 177.266 179.714 175.234 178.34C172.836 176.719 170.798 174.537 169.327 172.065ZM176.123 165.795C178.098 163.617 179.903 161.28 181.513 158.804C184.037 160.145 186.381 162.049 188.087 164.428C189.495 166.392 190.486 169.12 189.188 171.007C187.856 172.944 184.904 172.366 182.74 171.274C180.189 169.987 177.901 168.08 176.123 165.795ZM181.79 158.45C182.209 157.794 182.614 157.129 183.006 156.454C184.102 154.566 185.091 152.605 185.966 150.582C188.601 151.559 191.148 153.131 193.147 155.282C194.797 157.057 196.157 159.671 195.177 161.78C194.757 162.682 193.978 163.193 193.055 163.413C191.794 163.712 190.285 163.47 188.981 163.016C186.328 162.092 183.841 160.499 181.79 158.45ZM186.18 150.183C186.824 148.663 187.403 147.108 187.916 145.523C188.334 144.233 188.708 142.922 189.037 141.594C191.727 142.18 194.422 143.381 196.673 145.252C198.404 146.69 199.989 148.918 199.701 151.042C199.679 151.203 199.646 151.364 199.602 151.522C198.952 153.87 196.09 154.169 193.802 153.717C191.102 153.183 188.465 151.946 186.18 150.183ZM189.184 141.158C189.759 138.761 190.19 136.31 190.47 133.822C190.537 133.228 190.595 132.633 190.645 132.035C193.329 132.212 196.11 133.008 198.566 134.553C199.448 135.108 200.322 135.83 201.011 136.679C201.91 137.784 202.488 139.106 202.339 140.451C202.065 142.93 199.348 143.673 197.071 143.567C194.385 143.441 191.654 142.592 189.184 141.158ZM190.721 131.571C190.956 128.461 190.962 125.3 190.733 122.124C193.348 121.881 196.151 122.246 198.757 123.424C200.907 124.396 203.188 126.317 203.3 128.806C203.415 131.363 200.906 132.539 198.694 132.785C196.083 133.076 193.321 132.639 190.721 131.571ZM190.735 121.644C190.482 118.465 189.995 115.271 189.275 112.102C191.754 111.434 194.51 111.35 197.204 112.122C199.428 112.76 201.928 114.34 202.426 116.848C202.937 119.423 200.701 121.015 198.607 121.614C197.645 121.889 196.641 122.057 195.613 122.118C194.174 122.204 192.698 122.082 191.236 121.762C191.068 121.725 190.902 121.686 190.735 121.644ZM189.201 111.617C189.041 110.937 188.871 110.259 188.69 109.582C188.027 107.104 187.22 104.645 186.274 102.226C188.549 101.14 191.184 100.594 193.9 100.929C196.141 101.206 198.803 102.394 199.687 104.858C200.16 106.179 199.857 107.385 199.178 108.348C198.574 109.204 197.682 109.866 196.774 110.313C194.507 111.43 191.878 111.861 189.201 111.617ZM186.125 101.749C185.591 100.412 185.015 99.0891 184.397 97.7819C183.594 96.0813 182.719 94.4059 181.777 92.7636C183.779 91.2764 186.216 90.272 188.879 90.1485C191.077 90.0466 193.833 90.7986 195.091 93.1509C195.234 93.4174 195.342 93.6853 195.42 93.9523C196.032 96.0573 194.699 98.0284 193.191 99.1677C191.195 100.677 188.737 101.549 186.125 101.749ZM181.554 92.307C180.428 90.3766 179.209 88.4931 177.902 86.6692C177.249 85.7572 176.574 84.8589 175.877 83.9761C177.545 82.124 179.711 80.684 182.244 80.0974C183.777 79.7424 185.646 79.7937 187.197 80.7063C187.767 81.0414 188.287 81.4905 188.713 82.0657C190.363 84.2918 189.312 86.9029 187.904 88.4859C186.241 90.3559 184.028 91.6573 181.554 92.307Z" fill="#E9C6AF"/>
<path d="M87.5795 164.088C90.0205 166.428 92.6179 168.598 95.3361 170.563C94.4255 172.952 92.9363 175.092 90.8458 176.5C89.1211 177.662 86.5408 178.277 84.4106 176.639C82.2223 174.956 82.3346 172.008 83.0946 169.97C83.9925 167.562 85.5647 165.542 87.5795 164.088ZM87.5795 164.088C87.5793 164.088 87.5796 164.088 87.5795 164.088ZM95.732 170.89C96.3941 171.362 97.0632 171.821 97.7388 172.268C99.851 173.666 102.031 174.944 104.261 176.095C103.794 178.672 102.728 181.096 100.962 182.884C99.506 184.358 97.1368 185.43 94.8147 184.14C93.7173 183.531 93.0233 182.533 92.6496 181.429C92.2233 180.171 92.2144 178.791 92.4207 177.616C92.8757 175.024 94.0447 172.71 95.732 170.89ZM95.732 170.89C95.7319 170.891 95.7321 170.89 95.732 170.89ZM104.697 176.359C106.098 177.069 107.518 177.729 108.952 178.337C110.541 179.011 112.15 179.62 113.772 180.166C113.755 182.854 113.135 185.489 111.74 187.6C110.589 189.341 108.497 190.832 106.056 189.928C105.935 189.883 105.818 189.833 105.703 189.779C103.458 188.701 102.664 185.92 102.662 183.74C102.659 181.038 103.387 178.492 104.697 176.359ZM104.697 176.359C104.697 176.359 104.697 176.358 104.697 176.359ZM114.235 180.358C116.383 181.063 118.552 181.654 120.729 182.13C121.687 182.34 122.647 182.527 123.607 182.692C124.029 185.416 123.859 188.185 122.862 190.554C122.303 191.883 121.327 193.152 119.959 193.686C119.31 193.939 118.579 194.023 117.789 193.863C115.233 193.347 113.895 190.491 113.513 188.176C113.061 185.442 113.333 182.741 114.235 180.358ZM124.085 182.81C126.971 183.283 129.862 183.554 132.727 183.627C132.986 183.633 133.245 183.638 133.504 183.641C134.341 186.331 134.612 189.161 134.027 191.72C133.973 191.957 133.908 192.194 133.831 192.429C133.222 194.288 131.859 195.985 129.679 195.895C127.145 195.79 125.401 193.123 124.658 190.843C123.782 188.151 123.603 185.371 124.085 182.81ZM133.984 183.684C137.102 183.699 140.189 183.476 143.208 183.024C144.431 185.614 145.127 188.437 144.959 191.119C144.82 193.333 143.807 195.744 141.421 196.033C138.971 196.33 136.875 193.912 135.801 191.723C134.534 189.139 133.922 186.354 133.984 183.684ZM143.679 182.991C143.985 182.943 144.29 182.892 144.594 182.839C147.29 182.369 149.929 181.713 152.488 180.879C154.06 183.312 155.159 186.061 155.404 188.802C155.606 191.064 154.997 193.661 152.744 194.326C150.808 194.897 148.786 193.489 147.389 191.808C147.127 191.492 146.886 191.167 146.669 190.842C145.05 188.427 144.029 185.703 143.679 182.991ZM152.937 180.773C153.953 180.433 154.957 180.065 155.946 179.669C157.721 178.959 159.451 178.16 161.13 177.275C163.013 179.497 164.484 182.112 165.132 184.848C165.666 187.107 165.468 189.828 163.397 190.847C162.889 191.096 162.343 191.184 161.787 191.145C160.038 191.023 158.256 189.675 157.011 188.257C155.084 186.063 153.685 183.464 152.937 180.773ZM161.548 177.099C163.228 176.196 164.856 175.208 166.423 174.139C167.283 173.553 168.125 172.942 168.948 172.307C171.096 174.271 172.902 176.696 173.933 179.368C174.589 181.069 174.867 183.087 174.114 184.564C173.888 185.005 173.571 185.394 173.149 185.701C171.252 187.082 168.455 185.685 166.601 184.051C164.413 182.124 162.673 179.708 161.548 177.099ZM169.327 172.065C171.591 170.291 173.711 168.337 175.67 166.227C175.711 166.184 175.751 166.14 175.791 166.097C177.784 167.506 179.588 169.285 180.935 171.341C181.183 171.721 181.416 172.109 181.631 172.506C182.773 174.613 183.384 177.396 181.799 179.03C180.172 180.707 177.266 179.714 175.234 178.34C172.836 176.719 170.798 174.537 169.327 172.065ZM176.123 165.795C178.098 163.617 179.903 161.28 181.513 158.804C184.037 160.145 186.381 162.049 188.087 164.428C189.495 166.392 190.486 169.12 189.188 171.007C187.856 172.944 184.904 172.366 182.74 171.274C180.189 169.987 177.901 168.08 176.123 165.795ZM181.79 158.45C182.209 157.794 182.614 157.129 183.006 156.454C184.102 154.566 185.091 152.605 185.966 150.582C188.601 151.559 191.148 153.131 193.147 155.282C194.797 157.057 196.157 159.671 195.177 161.78C194.757 162.682 193.978 163.193 193.055 163.413C191.794 163.712 190.285 163.47 188.981 163.016C186.328 162.092 183.841 160.499 181.79 158.45ZM186.18 150.183C186.824 148.663 187.403 147.108 187.916 145.523C188.334 144.233 188.708 142.922 189.037 141.594C191.727 142.18 194.422 143.381 196.673 145.252C198.404 146.69 199.989 148.918 199.701 151.042C199.679 151.203 199.646 151.364 199.602 151.522C198.952 153.87 196.09 154.169 193.802 153.717C191.102 153.183 188.465 151.946 186.18 150.183ZM189.184 141.158C189.759 138.761 190.19 136.31 190.47 133.822C190.537 133.228 190.595 132.633 190.645 132.035C193.329 132.212 196.11 133.008 198.566 134.553C199.448 135.108 200.322 135.83 201.011 136.679C201.91 137.784 202.488 139.106 202.339 140.451C202.065 142.93 199.348 143.673 197.071 143.567C194.385 143.441 191.654 142.592 189.184 141.158ZM190.721 131.571C190.956 128.461 190.962 125.3 190.733 122.124C193.348 121.881 196.151 122.246 198.757 123.424C200.907 124.396 203.188 126.317 203.3 128.806C203.415 131.363 200.906 132.539 198.694 132.785C196.083 133.076 193.321 132.639 190.721 131.571ZM190.735 121.644C190.482 118.465 189.995 115.271 189.275 112.102C191.754 111.434 194.51 111.35 197.204 112.122C199.428 112.76 201.928 114.34 202.426 116.848C202.937 119.423 200.701 121.015 198.607 121.614C197.645 121.889 196.641 122.057 195.613 122.118C194.174 122.204 192.698 122.082 191.236 121.762C191.068 121.725 190.902 121.686 190.735 121.644ZM189.201 111.617C189.041 110.937 188.871 110.259 188.69 109.582C188.027 107.104 187.22 104.645 186.274 102.226C188.549 101.14 191.184 100.594 193.9 100.929C196.141 101.206 198.803 102.394 199.687 104.858C200.16 106.179 199.857 107.385 199.178 108.348C198.574 109.204 197.682 109.866 196.774 110.313C194.507 111.43 191.878 111.861 189.201 111.617ZM186.125 101.749C185.591 100.412 185.015 99.0891 184.397 97.7819C183.594 96.0813 182.719 94.4059 181.777 92.7636C183.779 91.2764 186.216 90.272 188.879 90.1485C191.077 90.0466 193.833 90.7986 195.091 93.1509C195.234 93.4174 195.342 93.6853 195.42 93.9523C196.032 96.0573 194.699 98.0284 193.191 99.1677C191.195 100.677 188.737 101.549 186.125 101.749ZM181.554 92.307C180.428 90.3766 179.209 88.493 177.902 86.6692C177.249 85.7572 176.574 84.8589 175.877 83.9761C177.545 82.124 179.711 80.684 182.244 80.0974C183.777 79.7424 185.646 79.7937 187.197 80.7063C187.767 81.0414 188.287 81.4905 188.713 82.0657C190.363 84.2918 189.312 86.9029 187.904 88.4859C186.241 90.3559 184.028 91.6573 181.554 92.307Z" stroke="#E9C6AF" stroke-width="2.62404" stroke-linecap="round" stroke-linejoin="round"/>
<defs>
<radialGradient id="paint0_radial_27_94" cx="0" cy="0" r="1" gradientUnits="userSpaceOnUse" gradientTransform="translate(139.481 132.505) rotate(-42.979) scale(39.194 47.2907)">
<stop offset="0.472015" stop-color="#F29696" stop-opacity="0.885714"/>
<stop offset="0.990672" stop-color="#ED8579" stop-opacity="0.984043"/>
<stop offset="1" stop-color="#DF8383" stop-opacity="0.654255"/>
</radialGradient>
</defs>
</svg>
